<svg width="278" height="94" viewBox="0 0 278 94" fill="none" xmlns="http://www.w3.org/2000/svg">
<path d="M34.6071 17.3483C34.7951 17.3491 34.9832 17.3499 35.177 17.3507C35.6389 17.3528 36.1007 17.3557 36.5626 17.3593C36.493 17.4395 36.4234 17.5196 36.3516 17.6022C34.5171 19.7258 33.8415 21.495 33.8605 24.3257C33.8599 24.5413 33.8592 24.7568 33.8585 24.9788C33.8572 25.5716 33.8582 26.1644 33.8601 26.7572C33.8617 27.3987 33.8602 28.0401 33.8591 28.6815C33.8574 29.7915 33.8577 30.9016 33.8591 32.0116C33.8611 33.6187 33.8595 35.2259 33.8569 36.8331C33.8527 39.444 33.8503 42.055 33.8496 44.666C33.8496 44.822 33.8496 44.9781 33.8495 45.1389C33.8491 46.8799 33.849 48.621 33.8491 50.362C33.8492 50.9934 33.8493 51.6249 33.8493 52.2563C33.8493 52.4121 33.8493 52.568 33.8493 52.7285C33.8494 55.3299 33.8468 57.9313 33.8421 60.5327C33.8393 62.1351 33.8389 63.7375 33.8416 65.34C33.8433 66.4384 33.8424 67.5369 33.8396 68.6353C33.8381 69.2682 33.8377 69.9011 33.8404 70.534C33.8434 71.2217 33.8408 71.9094 33.8378 72.5971C33.8395 72.7949 33.8412 72.9926 33.843 73.1963C33.8223 75.4913 33.1121 77.1928 31.5254 78.8319C29.8712 80.3691 28.08 80.7268 25.8997 80.6893C24.0418 80.6084 22.305 79.6687 21.0499 78.3115C19.667 76.5675 19.2813 74.6824 19.2902 72.5073C19.2896 72.3322 19.2889 72.1571 19.2882 71.9767C19.2864 71.3934 19.2871 70.8102 19.2878 70.2269C19.287 69.8072 19.2861 69.3875 19.2851 68.9679C19.2829 67.948 19.2825 66.9282 19.2829 65.9083C19.2832 65.0783 19.2829 64.2482 19.2822 63.4181C19.2821 63.2997 19.282 63.1812 19.2819 63.0592C19.2816 62.8185 19.2814 62.5778 19.2812 62.3371C19.2793 60.0821 19.2797 57.8271 19.2808 55.5721C19.2817 53.5151 19.2797 51.4581 19.2763 49.4011C19.2729 47.2838 19.2715 45.1665 19.2721 43.0491C19.2725 41.8625 19.2721 40.676 19.2696 39.4894C19.2673 38.372 19.2677 37.2547 19.27 36.1374C19.2704 35.7294 19.2699 35.3213 19.2685 34.9132C19.2512 29.6979 20.2431 25.3389 23.9503 21.4682C24.8417 20.5794 25.7954 19.9022 26.8947 19.2929C27.061 19.1991 27.2273 19.1053 27.3986 19.0086C29.7081 17.7773 32.0188 17.3276 34.6071 17.3483Z" fill="white"/>
<path d="M41.9432 17.2882C42.2021 17.2872 42.461 17.286 42.7198 17.2845C43.4197 17.2814 44.1195 17.2816 44.8194 17.2826C45.4052 17.2831 45.9909 17.2821 46.5767 17.281C47.9594 17.2786 49.3421 17.2788 50.7248 17.2808C52.1479 17.2828 53.5709 17.2804 54.994 17.2757C56.2189 17.2718 57.4438 17.2706 58.6688 17.2716C59.399 17.2722 60.1292 17.2718 60.8594 17.2688C61.5465 17.266 62.2335 17.2668 62.9206 17.2701C63.1716 17.2707 63.4225 17.2702 63.6735 17.2683C65.7734 17.254 67.5337 17.6153 69.082 19.117C69.4911 19.6171 69.8241 20.1343 70.1367 20.6991C70.1967 20.8051 70.2567 20.9112 70.3186 21.0204C70.9133 22.2928 70.8608 23.9138 70.5425 25.2536C69.8923 27.0136 68.7769 28.218 67.1484 29.1366C66.3365 29.4605 65.6573 29.5316 64.7857 29.5304C64.5937 29.5309 64.5937 29.5309 64.3979 29.5313C63.9712 29.5319 63.5446 29.53 63.1178 29.528C62.8112 29.5279 62.5045 29.528 62.1978 29.5282C61.3665 29.5283 60.5353 29.5262 59.7041 29.5238C58.8349 29.5216 57.9657 29.5214 57.0965 29.521C55.4511 29.5199 53.8058 29.517 52.1604 29.5135C50.287 29.5095 48.4136 29.5076 46.5401 29.5058C42.6869 29.5022 38.8336 29.496 34.9804 29.4881C34.9673 28.4689 34.9578 27.4497 34.9514 26.4304C34.9488 26.0843 34.9452 25.7383 34.9406 25.3922C34.9342 24.8921 34.9312 24.3921 34.9289 23.892C34.9262 23.7396 34.9235 23.5871 34.9207 23.4301C34.9202 21.6961 35.3512 20.2126 36.5624 18.9413C38.2093 17.4376 39.7834 17.2806 41.9432 17.2882Z" fill="white"/>
<path d="M34.9805 43.3749C39.3266 43.3397 39.3266 43.3397 41.1884 43.332C42.4556 43.3268 43.7228 43.3206 44.99 43.3086C46.0123 43.299 47.0346 43.2938 48.057 43.2915C48.4458 43.2899 48.8346 43.2868 49.2234 43.282C51.7452 43.2523 53.715 43.2499 55.7227 44.957C57.0359 46.4846 57.6009 48.0408 57.5416 50.0512C57.3522 51.6963 56.6161 53.1212 55.3855 54.2239C53.8648 55.424 52.424 55.7072 50.5259 55.6996C50.3578 55.6996 50.1896 55.6996 50.0164 55.6996C49.4619 55.6995 48.9074 55.6982 48.3529 55.6968C47.9679 55.6964 47.583 55.6962 47.198 55.696C46.1857 55.6953 45.1734 55.6936 44.1611 55.6917C42.946 55.6896 41.7309 55.6888 40.5158 55.6877C38.6707 55.686 36.8256 55.6827 34.9805 55.6796C34.9805 51.6191 34.9805 47.5585 34.9805 43.3749Z" fill="white"/>
<path d="M81.5625 48.8127C81.763 48.825 81.9636 48.8372 82.1702 48.8498C86.8209 49.3033 90.9394 51.8135 94.8745 54.1439C96.021 54.8203 97.1838 55.4653 98.3496 56.1077C100.025 57.0326 101.686 57.9791 103.337 58.9483C104.686 59.7402 106.043 60.5188 107.402 61.2932C110.274 62.9297 113.138 64.5787 115.965 66.2899C116.763 66.7726 117.18 66.9568 118.125 66.9182C118.386 66.8312 118.386 66.8312 118.652 66.7424C119.613 69.1812 119.788 71.3479 118.855 73.8163C118.125 75.4402 116.889 76.5748 115.277 77.2838C112.971 78.1083 110.639 77.6959 108.465 76.6998C107.958 76.438 107.46 76.1642 106.963 75.8831C106.691 75.7323 106.691 75.7323 106.413 75.5785C105.862 75.2725 105.314 74.9633 104.766 74.6526C104.607 74.5627 104.448 74.4727 104.284 74.3801C103.529 73.9515 102.776 73.5201 102.024 73.087C100.987 72.4912 99.9431 71.9071 98.8989 71.3237C97.3169 70.4397 95.7376 69.5509 94.1606 68.6579C92.9151 67.9532 91.6667 67.2538 90.4175 66.5557C89.0733 65.8043 87.7324 65.0476 86.3965 64.2815C84.5132 63.2017 82.6191 62.1416 80.7238 61.083C79.9576 60.6549 79.1916 60.2261 78.4258 59.7972C78.0521 59.5879 77.6783 59.3789 77.3044 59.1699C76.5083 58.7248 75.7132 58.2785 74.9226 57.8236C72.3506 56.3226 72.3506 56.3226 69.4576 55.8268C69.3018 55.8274 69.1461 55.828 68.9856 55.8285C68.7451 55.8308 68.7451 55.8308 68.4998 55.833C68.336 55.8338 68.1723 55.8346 68.0037 55.8354C67.6014 55.8375 67.1991 55.8404 66.7969 55.844C69.0121 52.4042 72.127 50.1282 76.1639 49.2529C77.9593 48.8981 79.7303 48.6978 81.5625 48.8127Z" fill="white"/>
<path d="M101.074 18.0508C102.942 19.3385 103.72 21.173 104.425 23.2583C104.513 23.5123 104.6 23.7662 104.688 24.0201C105.011 24.9586 105.328 25.8992 105.645 26.8399C105.782 27.247 105.919 27.6541 106.057 28.0612C107.765 33.1288 109.442 38.2058 111.061 43.3028C112.274 47.1162 113.527 50.9162 114.78 54.7165C115.048 55.5319 115.316 56.3476 115.583 57.1636C115.864 58.0216 116.149 58.878 116.437 59.7335C116.566 60.1213 116.695 60.509 116.823 60.8968C116.882 61.0671 116.94 61.2375 117 61.413C117.921 64.2174 117.921 64.2174 117.424 65.3969C117.365 65.4928 117.307 65.5887 117.246 65.6875C115.322 64.6331 113.417 63.5486 111.524 62.4399C110.219 61.6756 108.911 60.9168 107.6 60.1614C107.32 59.9992 107.32 59.9992 107.033 59.8338C106.137 59.3166 105.24 58.8012 104.34 58.2919C103.92 58.0539 103.5 57.815 103.08 57.576C102.785 57.4083 102.489 57.2421 102.193 57.076C101.923 56.9222 101.923 56.9222 101.648 56.7652C101.49 56.6762 101.332 56.5871 101.17 56.4953C100.186 55.8351 99.7404 55.2252 99.3927 54.0963C99.3527 53.97 99.3127 53.8437 99.2716 53.7135C99.1822 53.4305 99.0941 53.1471 99.007 52.8634C98.7511 52.0314 98.4855 51.2026 98.2213 50.3733C98.1297 50.0847 98.1297 50.0847 98.0362 49.7903C97.4329 47.8967 96.806 46.0112 96.1764 44.1262C96.1228 43.9655 96.0691 43.8047 96.0138 43.6392C95.6283 42.4851 95.2422 41.3312 94.856 40.1773C94.6407 39.5338 94.4254 38.8902 94.2102 38.2467C94.158 38.0908 94.1059 37.9349 94.0522 37.7743C93.6528 36.5795 93.2556 35.3841 92.8594 34.1883C92.575 33.3312 92.2852 32.4761 91.9925 31.6218C91.8607 31.2295 91.7289 30.8371 91.5972 30.4447C91.5378 30.2759 91.4785 30.1071 91.4173 29.9332C90.8775 28.3019 91.1636 27.0445 91.7105 25.4556C91.7825 25.2422 91.7825 25.2422 91.8559 25.0245C91.9571 24.7258 92.0593 24.4274 92.1622 24.1293C92.3175 23.6779 92.4685 23.2251 92.6193 22.7722C93.9489 18.8467 93.9489 18.8467 95.8208 17.8537C97.5824 17.0417 99.3836 17.0855 101.074 18.0508Z" fill="white"/>
<path d="M89.5448 14.1546C92.2598 14.0623 95.5048 14.6331 97.9102 15.9413C97.9102 15.9993 97.9102 16.0573 97.9102 16.1171C97.7615 16.1302 97.6129 16.1434 97.4597 16.1569C96.2359 16.2987 95.4086 16.4741 94.4804 17.305C94.2188 17.5233 94.2188 17.5233 93.8672 17.5233C93.8191 17.6239 93.7711 17.7245 93.7216 17.8282C93.5142 18.2292 93.2783 18.5952 93.0322 18.9735C91.4026 21.7126 90.6365 25.0641 89.6368 28.081C89.4091 28.7677 89.1807 29.4542 88.9523 30.1407C88.3744 31.8783 87.7974 33.6162 87.2205 35.3541C86.5944 37.2401 85.9681 39.1261 85.3409 41.0117C85.0693 41.828 84.7984 42.6444 84.5278 43.461C84.3602 43.9662 84.1923 44.4713 84.0242 44.9763C83.9461 45.2112 83.8682 45.4461 83.7905 45.681C83.6849 46.0004 83.5786 46.3196 83.4722 46.6388C83.4128 46.8177 83.3534 46.9967 83.2922 47.1811C83.1445 47.5819 83.1445 47.5819 82.9688 47.7577C82.7075 47.7666 82.4459 47.7639 82.1846 47.7563C76.9373 47.6489 72.1707 48.5813 68.2278 52.271C67.307 53.1616 66.4629 54.0792 65.7422 55.1405C65.6262 55.0825 65.5102 55.0245 65.3906 54.9647C70.7292 38.7407 70.7292 38.7407 72.7584 32.6795C72.8856 32.2994 73.0129 31.9192 73.1401 31.5391C73.1999 31.3605 73.2597 31.1819 73.3213 30.9979C73.692 29.8891 74.0566 28.7785 74.4173 27.6664C74.5476 27.2669 74.678 26.8674 74.8085 26.4679C74.9193 26.1266 75.028 25.7847 75.1366 25.4428C75.8705 23.1971 76.8395 21.2491 78.3984 19.4569C78.5362 19.2756 78.674 19.0944 78.8159 18.9076C81.5791 15.8812 85.545 14.4269 89.5448 14.1546Z" fill="white"/>
<path d="M73.3009 58.1288C73.4596 58.2141 73.6182 58.2993 73.7817 58.3871C74.2675 58.6498 74.7512 58.9161 75.2345 59.1835C75.3857 59.2664 75.537 59.3493 75.6928 59.4348C76.1132 59.6665 76.5312 59.9019 76.9483 60.1393C77.075 60.2097 77.2017 60.2801 77.3322 60.3525C78.1783 60.8454 78.1783 60.8454 78.3645 61.247C78.4128 61.8114 78.256 62.2272 78.0775 62.7642C78.023 62.9303 78.023 62.9303 77.9675 63.0997C77.8471 63.4655 77.7239 63.8304 77.6007 64.1954C77.5157 64.4506 77.4308 64.706 77.3461 64.9613C77.1679 65.4971 76.9883 66.0323 76.8078 66.5673C76.578 67.249 76.3512 67.9316 76.1253 68.6146C75.9503 69.1426 75.7738 69.6702 75.5968 70.1976C75.5127 70.4488 75.429 70.7002 75.3458 70.9517C74.4786 73.5673 73.517 75.7394 71.0157 77.1132C69.3005 77.9251 67.3461 78.0072 65.5397 77.4765C63.5108 76.7166 62.0661 75.3197 61.1665 73.3504C60.0863 70.4584 61.0795 67.8454 62.0179 65.0722C62.13 64.7356 62.2418 64.3989 62.3534 64.0622C62.5663 63.4208 62.7808 62.7799 62.9969 62.1396C63.1691 61.629 63.3391 61.1178 63.504 60.6048C63.5649 60.4163 63.6258 60.2278 63.6885 60.0336C63.7381 59.8778 63.7876 59.722 63.8386 59.5614C64.2873 58.3989 65.5621 57.7893 66.6212 57.2499C68.8912 56.3324 71.2599 57.0151 73.3009 58.1288Z" fill="white"/>
<path d="M174.469 13.1837C179.334 13.0466 183.434 14.0284 187.125 17.4025C189.658 19.866 191.468 23.347 191.565 26.9322C191.567 27.2645 191.568 27.5968 191.567 27.9292C191.567 28.1138 191.568 28.2984 191.569 28.4886C191.571 29.1029 191.571 29.7173 191.571 30.3316C191.572 30.7738 191.573 31.216 191.574 31.6582C191.577 32.7321 191.578 33.8059 191.578 34.8798C191.578 35.7531 191.579 36.6264 191.58 37.4997C191.583 39.9795 191.585 42.4592 191.585 44.9389C191.585 45.0724 191.585 45.2058 191.585 45.3433C191.585 45.4769 191.585 45.6105 191.585 45.7482C191.584 47.9139 191.588 50.0795 191.593 52.2452C191.598 54.4726 191.6 56.6999 191.6 58.9273C191.6 60.1764 191.601 61.4254 191.605 62.6744C191.608 63.849 191.608 65.0236 191.605 66.1982C191.605 66.6285 191.606 67.0589 191.608 67.4892C191.611 68.0781 191.609 68.6669 191.606 69.2558C191.608 69.4247 191.61 69.5937 191.612 69.7677C191.591 71.8071 190.837 73.3996 189.449 74.8603C187.844 76.3867 186.009 76.878 183.846 76.8536C181.951 76.7341 180.279 75.8626 178.984 74.4874C177.953 73.2538 177.261 71.91 177.258 70.2896C177.257 70.1063 177.256 69.923 177.256 69.7341C177.256 69.533 177.256 69.3319 177.256 69.1246C177.255 68.9108 177.255 68.6969 177.254 68.4766C177.252 67.8826 177.252 67.2887 177.251 66.6948C177.25 66.0543 177.249 65.4138 177.247 64.7733C177.245 63.6631 177.243 62.5529 177.241 61.4426C177.238 59.8353 177.235 58.228 177.231 56.6207C177.224 54.0102 177.218 51.3997 177.212 48.7892C177.212 48.633 177.212 48.4767 177.211 48.3157C177.206 46.0998 177.202 43.8839 177.198 41.6681C177.198 41.5122 177.198 41.3563 177.197 41.1956C177.197 41.0399 177.197 40.8842 177.197 40.7238C177.192 38.1246 177.186 35.5254 177.179 32.9262C177.174 31.3238 177.171 29.7213 177.169 28.1188C177.168 27.0197 177.165 25.9205 177.162 24.8214C177.16 24.1878 177.159 23.5543 177.159 22.9207C177.159 22.2325 177.156 21.5443 177.153 20.856C177.154 20.6577 177.154 20.4593 177.155 20.2549C177.137 17.588 176.609 15.6214 174.745 13.6609C174.469 13.3595 174.469 13.3595 174.469 13.1837Z" fill="white"/>
<path d="M141.762 13.1726C141.933 13.1734 142.103 13.1741 142.279 13.175C142.697 13.177 143.114 13.1799 143.531 13.1835C143.427 13.3013 143.427 13.3013 143.321 13.4214C141.315 15.7177 140.867 17.8025 140.871 20.7842C140.871 20.9987 140.871 21.2131 140.87 21.4341C140.87 21.9031 140.869 22.3721 140.869 22.8411C140.87 23.6044 140.869 24.3678 140.868 25.1311C140.866 26.2394 140.865 27.3477 140.865 28.456C140.864 30.2088 140.861 31.9617 140.858 33.7145C140.856 34.3148 140.855 34.9151 140.854 35.5154C140.854 35.6655 140.854 35.8155 140.853 35.97C140.85 37.676 140.847 39.3821 140.845 41.0881C140.844 41.3219 140.844 41.3219 140.844 41.5605C140.84 44.0865 140.838 46.6125 140.837 49.1386C140.836 51.7346 140.831 54.3306 140.825 56.9266C140.821 58.5265 140.819 60.1263 140.821 61.7261C140.821 62.8229 140.819 63.9198 140.815 65.0166C140.813 65.6488 140.812 66.2809 140.814 66.913C140.816 67.5997 140.813 68.2863 140.809 68.973C140.811 69.2698 140.811 69.2698 140.813 69.5727C140.79 71.8165 140.024 73.3962 138.5 75.0084C136.967 76.4538 135.088 76.8764 133.045 76.8534C131.151 76.7339 129.478 75.8625 128.183 74.4873C127.197 73.3077 126.46 71.967 126.457 70.4072C126.456 70.2501 126.455 70.0931 126.454 69.9313C126.455 69.7595 126.455 69.5877 126.455 69.4107C126.454 69.2276 126.453 69.0445 126.453 68.8559C126.451 68.2403 126.45 67.6247 126.449 67.0092C126.448 66.5686 126.447 66.1279 126.446 65.6873C126.442 64.3632 126.441 63.0391 126.439 61.715C126.438 61.0905 126.437 60.4661 126.436 59.8416C126.433 57.764 126.431 55.6864 126.43 53.6088C126.429 53.0697 126.429 52.5307 126.429 51.9916C126.428 51.7907 126.428 51.7907 126.428 51.5857C126.427 49.4194 126.422 47.2531 126.417 45.0868C126.411 42.8596 126.408 40.6325 126.407 38.4054C126.407 37.1562 126.405 35.907 126.401 34.6578C126.396 33.4811 126.396 32.3044 126.398 31.1276C126.398 30.6974 126.397 30.2671 126.394 29.8369C126.368 24.9631 127.421 20.9518 130.904 17.3584C133.838 14.513 137.72 13.1366 141.762 13.1726Z" fill="white"/>
<path d="M145.802 13.5737C146.257 13.7443 146.44 13.952 146.751 14.3241C146.857 14.4516 146.964 14.579 147.074 14.7104C147.603 15.3737 148.114 16.0494 148.618 16.7321C148.85 17.0442 149.082 17.3562 149.315 17.668C149.434 17.8274 149.552 17.9868 149.675 18.151C150.258 18.9309 150.85 19.7046 151.441 20.4785C152.355 21.6753 153.264 22.8761 154.166 24.082C155.413 25.7488 156.674 27.4054 157.937 29.06C158.552 29.865 159.166 30.6703 159.78 31.4758C159.899 31.6316 160.018 31.7874 160.14 31.948C160.741 32.7368 161.34 33.5271 161.933 34.3213C162.11 34.5571 162.11 34.5571 162.291 34.7978C162.514 35.0954 162.737 35.3933 162.958 35.692C163.256 36.093 163.556 36.4926 163.856 36.8921C163.949 37.0176 164.041 37.1432 164.137 37.2726C165.49 39.0665 166.978 40.0395 169.195 40.4296C168.711 42.2059 166.635 43.3798 165.152 44.2968C162.062 46.046 158.614 46.6238 155.133 45.78C150.906 44.4502 148.169 41.6541 145.624 38.1939C144.957 37.2863 144.269 36.3952 143.575 35.5078C143.473 35.3765 143.37 35.2452 143.264 35.1099C143.083 34.8785 142.902 34.6471 142.721 34.416C142.64 34.3122 142.56 34.2084 142.477 34.1015C142.386 34.0083 142.295 33.915 142.202 33.8189C141.843 33.2218 141.876 32.6569 141.881 31.9805C141.88 31.838 141.879 31.6956 141.878 31.5488C141.876 31.0777 141.877 30.6066 141.879 30.1355C141.879 29.8065 141.878 29.4776 141.878 29.1487C141.877 28.4583 141.878 27.7679 141.88 27.0776C141.883 26.1977 141.882 25.318 141.879 24.4382C141.877 23.758 141.877 23.0779 141.879 22.3977C141.879 22.0737 141.879 21.7496 141.877 21.4256C141.863 16.5771 141.863 16.5771 143.531 14.7656C145.122 13.4959 145.122 13.4959 145.802 13.5737Z" fill="white"/>
<path d="M171.623 13.2383C173.121 13.5613 174.373 14.5335 175.216 15.7981C176.568 18.2629 176.181 21.5754 176.212 24.2991C176.22 24.9138 176.235 25.5277 176.256 26.1421C176.451 32.0548 176.451 32.0548 174.903 33.8713C174.578 34.2174 174.245 34.5458 173.894 34.8667C173.45 35.2894 173.12 35.7536 172.765 36.254C172.65 36.4079 172.535 36.5619 172.417 36.7205C172.188 37.0274 171.961 37.3351 171.734 37.6434C171.621 37.794 171.508 37.9445 171.392 38.0997C171.246 38.2973 171.246 38.2973 171.096 38.4989C170.634 39.0043 170.169 39.3505 169.478 39.4125C167.803 39.2204 166.483 38.579 165.388 37.2674C165.069 36.8499 164.758 36.4273 164.449 36.002C164.217 35.6864 163.984 35.371 163.751 35.0558C163.575 34.8171 163.575 34.8171 163.395 34.5736C162.853 33.8469 162.295 33.1335 161.736 32.4204C160.857 31.2983 160.003 30.1641 159.176 29.0037C159.862 27.9445 160.589 26.9374 161.373 25.9495C162.243 24.843 163.092 23.7243 163.922 22.5876C164.822 21.3564 165.745 20.1472 166.687 18.9483C167.563 17.8298 168.404 16.6878 169.232 15.5331C170.738 13.4546 170.738 13.4546 171.623 13.2383Z" fill="white"/>
<path d="M224.562 47.8127C224.763 47.825 224.964 47.8372 225.17 47.8498C229.821 48.3033 233.939 50.8135 237.874 53.1439C239.021 53.8203 240.184 54.4653 241.35 55.1077C243.025 56.0326 244.686 56.9791 246.337 57.9483C247.686 58.7402 249.043 59.5188 250.402 60.2932C253.274 61.9297 256.138 63.5787 258.965 65.2899C259.763 65.7726 260.18 65.9568 261.125 65.9182C261.386 65.8312 261.386 65.8312 261.652 65.7424C262.613 68.1812 262.788 70.3479 261.855 72.8163C261.125 74.4402 259.889 75.5748 258.277 76.2838C255.971 77.1083 253.639 76.6959 251.465 75.6998C250.958 75.438 250.46 75.1642 249.963 74.8831C249.691 74.7323 249.691 74.7323 249.413 74.5785C248.862 74.2725 248.314 73.9633 247.766 73.6526C247.607 73.5627 247.448 73.4727 247.284 73.3801C246.529 72.9515 245.776 72.5201 245.024 72.087C243.987 71.4912 242.943 70.9071 241.899 70.3237C240.317 69.4397 238.738 68.5509 237.161 67.6579C235.915 66.9532 234.667 66.2538 233.417 65.5557C232.073 64.8043 230.732 64.0476 229.396 63.2815C227.513 62.2017 225.619 61.1416 223.724 60.083C222.958 59.6549 222.192 59.2261 221.426 58.7972C221.052 58.5879 220.678 58.3789 220.304 58.1699C219.508 57.7248 218.713 57.2785 217.923 56.8236C215.351 55.3226 215.351 55.3226 212.458 54.8268C212.302 54.8274 212.146 54.828 211.986 54.8285C211.745 54.8308 211.745 54.8308 211.5 54.833C211.336 54.8338 211.172 54.8346 211.004 54.8354C210.601 54.8375 210.199 54.8404 209.797 54.844C212.012 51.4042 215.127 49.1282 219.164 48.2529C220.959 47.8981 222.73 47.6978 224.562 47.8127Z" fill="white"/>
<path d="M244.074 17.0508C245.942 18.3385 246.72 20.173 247.425 22.2583C247.513 22.5123 247.6 22.7662 247.688 23.0201C248.011 23.9586 248.328 24.8992 248.645 25.8399C248.782 26.247 248.919 26.6541 249.057 27.0612C250.765 32.1288 252.442 37.2058 254.061 42.3028C255.274 46.1162 256.527 49.9162 257.78 53.7165C258.048 54.5319 258.316 55.3477 258.583 56.1636C258.864 57.0216 259.149 57.878 259.437 58.7335C259.566 59.1213 259.695 59.509 259.823 59.8968C259.882 60.0671 259.94 60.2375 260 60.413C260.921 63.2174 260.921 63.2174 260.424 64.3969C260.365 64.4928 260.307 64.5887 260.246 64.6875C258.322 63.6331 256.417 62.5486 254.524 61.4399C253.219 60.6756 251.911 59.9168 250.6 59.1614C250.32 58.9992 250.32 58.9992 250.033 58.8338C249.137 58.3166 248.24 57.8012 247.34 57.2919C246.92 57.0539 246.5 56.815 246.08 56.576C245.785 56.4083 245.489 56.2421 245.193 56.076C244.923 55.9222 244.923 55.9222 244.648 55.7652C244.49 55.6762 244.332 55.5871 244.17 55.4953C243.186 54.8351 242.74 54.2252 242.393 53.0963C242.353 52.97 242.313 52.8437 242.272 52.7135C242.182 52.4305 242.094 52.1471 242.007 51.8634C241.751 51.0314 241.485 50.2026 241.221 49.3733C241.13 49.0847 241.13 49.0847 241.036 48.7903C240.433 46.8967 239.806 45.0112 239.176 43.1262C239.123 42.9655 239.069 42.8048 239.014 42.6392C238.628 41.4851 238.242 40.3312 237.856 39.1773C237.641 38.5338 237.425 37.8902 237.21 37.2467C237.158 37.0908 237.106 36.9349 237.052 36.7743C236.653 35.5795 236.256 34.3841 235.859 33.1883C235.575 32.3312 235.285 31.4761 234.993 30.6218C234.861 30.2295 234.729 29.8371 234.597 29.4447C234.538 29.2759 234.478 29.1071 234.417 28.9332C233.878 27.3019 234.164 26.0445 234.71 24.4556C234.782 24.2422 234.782 24.2422 234.856 24.0245C234.957 23.7258 235.059 23.4274 235.162 23.1293C235.317 22.6779 235.468 22.2251 235.619 21.7722C236.949 17.8467 236.949 17.8467 238.821 16.8537C240.582 16.0417 242.384 16.0855 244.074 17.0508Z" fill="white"/>
<path d="M232.545 13.1546C235.26 13.0623 238.505 13.6331 240.91 14.9413C240.91 14.9993 240.91 15.0573 240.91 15.1171C240.762 15.1302 240.613 15.1434 240.46 15.1569C239.236 15.2987 238.409 15.4741 237.48 16.305C237.219 16.5233 237.219 16.5233 236.867 16.5233C236.819 16.6239 236.771 16.7245 236.722 16.8282C236.514 17.2292 236.278 17.5952 236.032 17.9735C234.403 20.7126 233.637 24.0641 232.637 27.081C232.409 27.7677 232.181 28.4542 231.952 29.1407C231.374 30.8783 230.797 32.6162 230.22 34.3541C229.594 36.2401 228.968 38.1261 228.341 40.0117C228.069 40.828 227.798 41.6444 227.528 42.461C227.36 42.9662 227.192 43.4713 227.024 43.9763C226.946 44.2112 226.868 44.4461 226.791 44.681C226.685 45.0004 226.579 45.3196 226.472 45.6388C226.413 45.8177 226.353 45.9967 226.292 46.1811C226.145 46.5819 226.145 46.5819 225.969 46.7577C225.708 46.7666 225.446 46.7639 225.185 46.7563C219.937 46.6489 215.171 47.5813 211.228 51.271C210.307 52.1616 209.463 53.0792 208.742 54.1405C208.626 54.0825 208.51 54.0245 208.391 53.9647C213.729 37.7407 213.729 37.7407 215.758 31.6795C215.886 31.2994 216.013 30.9192 216.14 30.5391C216.2 30.3605 216.26 30.1819 216.321 29.9979C216.692 28.8891 217.057 27.7785 217.417 26.6664C217.548 26.2669 217.678 25.8674 217.809 25.4679C217.919 25.1266 218.028 24.7847 218.137 24.4428C218.87 22.1971 219.839 20.2491 221.398 18.4569C221.536 18.2756 221.674 18.0944 221.816 17.9076C224.579 14.8812 228.545 13.4269 232.545 13.1546Z" fill="white"/>
<path d="M216.301 57.1288C216.46 57.2141 216.618 57.2993 216.782 57.3871C217.268 57.6498 217.751 57.9161 218.234 58.1835C218.386 58.2664 218.537 58.3493 218.693 58.4348C219.113 58.6665 219.531 58.9019 219.948 59.1393C220.075 59.2097 220.202 59.2801 220.332 59.3525C221.178 59.8454 221.178 59.8454 221.365 60.247C221.413 60.8114 221.256 61.2272 221.077 61.7642C221.023 61.9303 221.023 61.9303 220.968 62.0997C220.847 62.4655 220.724 62.8304 220.601 63.1954C220.516 63.4506 220.431 63.706 220.346 63.9613C220.168 64.4971 219.988 65.0323 219.808 65.5673C219.578 66.249 219.351 66.9316 219.125 67.6146C218.95 68.1426 218.774 68.6702 218.597 69.1976C218.513 69.4488 218.429 69.7002 218.346 69.9517C217.479 72.5673 216.517 74.7394 214.016 76.1132C212.3 76.9251 210.346 77.0072 208.54 76.4765C206.511 75.7166 205.066 74.3197 204.166 72.3504C203.086 69.4584 204.079 66.8454 205.018 64.0722C205.13 63.7356 205.242 63.3989 205.353 63.0622C205.566 62.4208 205.781 61.7799 205.997 61.1396C206.169 60.629 206.339 60.1178 206.504 59.6048C206.565 59.4163 206.626 59.2278 206.689 59.0336C206.738 58.8778 206.788 58.722 206.839 58.5614C207.287 57.3989 208.562 56.7893 209.621 56.2499C211.891 55.3324 214.26 56.0151 216.301 57.1288Z" fill="white"/>
</svg>
