<svg width="204" height="204" viewBox="0 0 204 204" fill="none" xmlns="http://www.w3.org/2000/svg">
<g clip-path="url(#clip0_555_718)">
<path d="M187.639 69.9019C193.092 67.8584 199.226 70.6141 200.696 76.2482C206.238 97.4861 204.802 120.051 196.436 140.546C186.737 164.31 168.435 183.543 145.182 194.409C121.928 205.275 95.4335 206.975 70.9823 199.169C46.5311 191.364 25.9213 174.628 13.2644 152.299C0.607559 129.97 -3.16595 103.69 2.69673 78.7014C8.55941 53.7132 23.6272 31.8538 44.8943 17.484C66.1614 3.11422 92.0643 -2.70957 117.435 1.17447C139.317 4.52427 159.415 14.8825 174.791 30.5464C178.869 34.7018 178.083 41.3803 173.529 45.0088C168.975 48.6372 162.385 47.827 158.195 43.783C146.212 32.2153 130.877 24.564 114.244 22.0177C94.1183 18.9366 73.5703 23.5564 56.6996 34.9556C39.829 46.3548 27.876 63.6953 23.2253 83.5178C18.5746 103.34 21.5681 124.188 31.6084 141.901C41.6488 159.614 57.9981 172.89 77.3945 179.082C96.791 185.274 117.809 183.925 136.255 175.305C154.701 166.686 169.219 151.429 176.914 132.578C183.273 116.999 184.584 99.9115 180.815 83.6878C179.497 78.0162 182.187 71.9455 187.639 69.9019Z" fill="url(#paint0_linear_555_718)"/>
<g clip-path="url(#clip1_555_718)">
<path d="M153.15 58.9831C153.191 58.9832 153.232 58.9833 153.275 58.9834C153.872 58.9859 154.443 59.0075 155.023 59.1643C155.059 59.1734 155.094 59.1824 155.13 59.1918C156.243 59.4839 157.141 60.0167 157.976 60.8049C158.013 60.8384 158.05 60.8719 158.089 60.9064C159.183 61.9353 159.807 63.5314 159.854 65.0175C159.878 67.0144 159.381 68.6814 157.966 70.1325C156.626 71.4656 154.815 71.924 152.972 71.9199C152.434 71.9165 151.935 71.879 151.414 71.7424C151.371 71.7318 151.329 71.7212 151.285 71.7103C150.323 71.4674 149.499 71.0632 148.734 70.4299C148.687 70.3918 148.64 70.3538 148.592 70.3145C147.323 69.237 146.647 67.5828 146.508 65.9532C146.398 64.3202 146.82 62.5518 147.914 61.2971C147.952 61.2529 147.989 61.2087 148.028 61.1631C148.845 60.2271 149.79 59.625 150.976 59.26C151.042 59.2397 151.042 59.2397 151.108 59.2191C151.782 59.0213 152.452 58.9796 153.15 58.9831ZM150.576 62.9753C149.893 63.702 149.643 64.596 149.652 65.5762C149.698 66.3697 149.954 67.1013 150.484 67.6955C150.518 67.7365 150.552 67.7776 150.587 67.8198C151.171 68.4712 152.087 68.7941 152.945 68.844C152.985 68.8468 153.025 68.8497 153.066 68.8527C154.008 68.8888 154.91 68.5766 155.625 67.969C156.213 67.4071 156.602 66.6106 156.622 65.7919C156.634 65.1848 156.62 64.656 156.39 64.0861C156.369 64.0303 156.347 63.9745 156.324 63.9169C155.942 63.0588 155.229 62.5056 154.367 62.1721C153.108 61.7415 151.537 62.0702 150.576 62.9753Z" fill="white"/>
<path d="M170.482 61.4015C170.676 61.3973 170.87 61.3947 171.064 61.3925C171.124 61.3914 171.184 61.3902 171.245 61.389C171.329 61.3886 171.329 61.3886 171.415 61.3883C171.464 61.3878 171.513 61.3872 171.564 61.3867C171.735 61.4106 171.837 61.4704 171.976 61.5703C172.055 61.727 172.048 61.8335 172.031 62.0078C171.881 62.2627 171.697 62.4713 171.494 62.6845C171.436 62.7474 171.377 62.8104 171.318 62.8734C171.29 62.9034 171.262 62.9334 171.233 62.9643C171.109 63.098 170.99 63.2358 170.87 63.3737C170.749 63.5125 170.624 63.6488 170.5 63.7851C170.343 63.9569 170.187 64.1292 170.035 64.3046C169.883 64.4801 169.727 64.6524 169.57 64.8242C169.381 65.0314 169.195 65.2404 169.011 65.452C168.775 65.7209 168.534 65.985 168.294 66.2503C168.109 66.4562 167.923 66.6623 167.742 66.8715C167.542 67.101 167.336 67.3252 167.131 67.55C167.022 67.6703 166.915 67.7915 166.808 67.914C166.61 68.1425 166.406 68.3655 166.202 68.5891C166.093 68.7094 165.985 68.8306 165.879 68.9531C165.726 69.1286 165.571 69.3009 165.414 69.4726C165.225 69.6798 165.038 69.8888 164.854 70.1005C164.619 70.3693 164.378 70.6334 164.138 70.8988C163.952 71.1047 163.767 71.3108 163.585 71.52C163.386 71.7494 163.18 71.9737 162.975 72.1984C162.866 72.3187 162.759 72.4399 162.652 72.5625C162.5 72.738 162.344 72.9102 162.187 73.082C161.998 73.2892 161.812 73.4982 161.628 73.7098C161.392 73.9787 161.151 74.2428 160.912 74.5081C160.726 74.714 160.541 74.9201 160.359 75.1294C160.159 75.3588 159.954 75.5831 159.749 75.8078C159.64 75.9281 159.532 76.0493 159.426 76.1718C159.273 76.3473 159.117 76.5196 158.961 76.6914C158.772 76.8986 158.585 77.1076 158.401 77.3192C158.166 77.5881 157.925 77.8522 157.685 78.1175C157.499 78.3234 157.314 78.5295 157.132 78.7387C156.932 78.9682 156.727 79.1924 156.522 79.4172C156.413 79.5375 156.306 79.6587 156.199 79.7812C156.047 79.9567 155.891 80.129 155.734 80.3007C155.545 80.508 155.359 80.717 155.175 80.9286C154.939 81.1975 154.698 81.4616 154.458 81.7269C154.273 81.9328 154.088 82.1389 153.906 82.3481C153.706 82.5776 153.5 82.802 153.295 83.0268C153.187 83.1458 153.081 83.2658 152.976 83.3872C152.931 83.4385 152.931 83.4385 152.884 83.4908C152.804 83.583 152.725 83.6766 152.647 83.7706C152.277 84.2055 151.882 84.5288 151.305 84.6484C151.207 84.6541 151.11 84.6571 151.013 84.6581C150.955 84.6588 150.897 84.6595 150.837 84.6602C150.743 84.6608 150.743 84.6608 150.647 84.6614C150.582 84.6619 150.518 84.6623 150.451 84.6628C150.314 84.6635 150.178 84.6641 150.041 84.6645C149.832 84.6655 149.623 84.6679 149.415 84.6703C149.282 84.6708 149.149 84.6713 149.016 84.6717C148.923 84.6731 148.923 84.6731 148.827 84.6746C148.396 84.6734 148.396 84.6734 148.176 84.5504C148.059 84.4061 148.032 84.2943 148.045 84.1088C148.112 83.8734 148.292 83.7237 148.461 83.5546C148.541 83.4662 148.621 83.3773 148.7 83.288C148.784 83.1946 148.869 83.1012 148.953 83.0078C149.035 82.9166 149.117 82.8255 149.199 82.7343C150.84 80.9114 152.48 79.0885 154.121 77.2656C154.161 77.2206 154.202 77.1756 154.244 77.1293C154.327 77.0367 154.41 76.9441 154.494 76.8516C154.679 76.6468 154.863 76.4417 155.044 76.2334C155.233 76.0164 155.427 75.805 155.622 75.5934C155.762 75.4415 155.9 75.2887 156.035 75.1328C156.221 74.9178 156.414 74.7088 156.607 74.4996C156.746 74.3477 156.884 74.1949 157.019 74.039C157.206 73.8241 157.398 73.6151 157.591 73.4058C157.731 73.254 157.869 73.1011 158.004 72.9453C158.19 72.7303 158.383 72.5213 158.575 72.3121C158.715 72.1602 158.853 72.0074 158.988 71.8515C159.174 71.6366 159.367 71.4276 159.56 71.2183C159.699 71.0665 159.837 70.9136 159.973 70.7578C160.159 70.5428 160.351 70.3338 160.544 70.1246C160.684 69.9727 160.822 69.8199 160.957 69.664C161.118 69.4786 161.283 69.2976 161.449 69.1171C161.647 68.9021 161.842 68.685 162.034 68.4641C162.203 68.272 162.376 68.0839 162.548 67.895C162.656 67.776 162.762 67.656 162.868 67.5346C163.055 67.3187 163.249 67.1085 163.443 66.898C163.582 66.7462 163.72 66.5933 163.855 66.4375C164.042 66.2225 164.234 66.0135 164.427 65.8043C164.567 65.6524 164.705 65.4996 164.84 65.3437C165.026 65.1287 165.219 64.9198 165.411 64.7105C165.551 64.5587 165.689 64.4058 165.824 64.25C166.01 64.035 166.203 63.826 166.396 63.6168C166.566 63.4316 166.732 63.2439 166.897 63.0539C167.056 62.8733 167.22 62.6965 167.384 62.5199C167.519 62.374 167.647 62.2259 167.769 62.0693C168.074 61.7092 168.535 61.4921 169 61.4473C169.168 61.4376 169.337 61.4315 169.505 61.4267C169.598 61.4238 169.598 61.4238 169.692 61.4208C169.955 61.4131 170.219 61.4077 170.482 61.4015Z" fill="white"/>
<path d="M170.117 75.0236C170.171 75.0495 170.225 75.0753 170.28 75.102C171.678 75.8162 172.657 77.0931 173.169 78.5544C173.693 80.2453 173.632 82.1121 172.798 83.697C172.744 83.7961 172.689 83.8943 172.633 83.9924C172.603 84.046 172.573 84.0996 172.543 84.1549C171.709 85.5643 170.298 86.4397 168.747 86.8457C168.142 86.9787 167.549 87.0206 166.931 87.0173C166.892 87.0171 166.852 87.017 166.811 87.0169C166.221 87.0141 165.658 86.9933 165.086 86.8361C165.047 86.8255 165.008 86.815 164.968 86.8041C163.413 86.3681 162.065 85.4062 161.251 83.9946C160.757 83.0957 160.433 82.1239 160.383 81.0939C160.38 81.036 160.377 80.9782 160.374 80.9185C160.346 79.7802 160.579 78.6654 161.094 77.6486C161.118 77.5987 161.143 77.5488 161.168 77.4974C161.359 77.1279 161.589 76.8151 161.859 76.5002C161.896 76.4558 161.932 76.4113 161.97 76.3656C163.052 75.093 164.631 74.4767 166.265 74.3332C167.612 74.2458 168.902 74.4279 170.117 75.0236ZM164.32 78.3049C163.696 79.0456 163.444 79.9863 163.508 80.9421C163.592 81.8282 163.948 82.6494 164.602 83.2639C165.485 83.9822 166.489 84.1416 167.601 84.047C168.463 83.9305 169.202 83.4913 169.738 82.8093C170.325 81.9378 170.492 80.9838 170.318 79.9615C170.134 79.072 169.708 78.3247 168.956 77.7986C167.511 76.8839 165.507 77.0527 164.32 78.3049Z" fill="white"/>
</g>
<g clip-path="url(#clip2_555_718)">
<path d="M77.8828 68.9561C78.0102 68.9562 78.0102 68.9562 78.1402 68.9563C79.5423 68.9611 80.8692 69.0691 82.2188 69.4688C82.3043 69.4939 82.3899 69.519 82.4781 69.5449C87.14 70.9608 90.844 74.3004 93.1228 78.5558C95.4052 82.9592 95.421 87.7438 93.9521 92.3946C92.0316 98.1445 88.7872 103.26 85.2192 108.119C85.0222 108.387 84.8262 108.656 84.6302 108.925C83.7527 110.126 82.8505 111.306 81.9329 112.477C81.6747 112.807 81.4193 113.14 81.1641 113.473C80.7052 114.07 80.243 114.665 79.7798 115.26C79.213 115.988 78.6487 116.717 78.0879 117.45C78.0236 117.534 77.9592 117.618 77.893 117.704C77.8334 117.782 77.7739 117.86 77.7125 117.94C77.6604 118.008 77.6082 118.076 77.5545 118.147C77.4238 118.323 77.3014 118.505 77.1797 118.688C83.2898 118.688 89.4 118.688 95.6953 118.688C95.6953 122.091 95.6953 125.494 95.6953 129C84.8672 129 74.0391 129 62.8828 129C62.8828 120.254 62.8828 120.254 64.4502 118.592C64.9977 118.007 65.5193 117.41 66.0203 116.784C66.2539 116.495 66.4933 116.212 66.7357 115.93C67.421 115.133 68.0619 114.306 68.6964 113.468C69.0306 113.026 69.3712 112.59 69.7134 112.155C70.4339 111.238 71.1214 110.305 71.7877 109.348C72.2199 108.728 72.6651 108.117 73.1116 107.507C73.5436 106.913 73.9532 106.306 74.3589 105.693C74.7549 105.097 75.1582 104.506 75.561 103.915C75.6476 103.787 75.7342 103.66 75.8235 103.529C76.0801 103.152 76.3369 102.775 76.5938 102.398C76.6641 102.295 76.7345 102.192 76.8071 102.085C77.5174 101.042 78.2339 100.003 78.9595 98.9708C80.0492 97.4173 81.0939 95.8461 82.0663 94.2161C82.1633 94.0538 82.2609 93.8917 82.3593 93.7301C83.9558 91.1003 85.5856 87.7535 84.8408 84.6299C84.2741 82.7019 83.0938 81.1696 81.3682 80.1393C79.5673 79.1764 77.8444 78.9579 75.8938 79.5103C74.1893 80.0384 72.7335 81.1924 71.8417 82.7385C71.7576 82.8989 71.7576 82.8989 71.6719 83.0626C71.6195 83.1598 71.567 83.2571 71.513 83.3574C70.9851 84.4684 70.8078 85.6961 70.5758 86.8947C70.4469 87.5522 70.3081 88.2076 70.1704 88.8633C70.1208 89.1014 70.0712 89.3394 70.0216 89.5775C69.9858 89.7496 69.9499 89.9217 69.9141 90.0938C68.8919 90.0258 67.9014 89.8199 66.9011 89.6104C66.7252 89.574 66.5493 89.5377 66.3735 89.5014C65.9139 89.4064 65.4544 89.3107 64.995 89.2149C64.6195 89.1367 64.2439 89.059 63.8682 88.9813C63.4192 88.8884 62.9702 88.7954 62.5212 88.7022C62.3934 88.6757 62.3934 88.6757 62.263 88.6486C62.0218 88.5986 61.7807 88.5483 61.5396 88.4981C61.3341 88.4553 61.3341 88.4553 61.1244 88.4116C60.8495 88.3524 60.5769 88.2896 60.3047 88.2188C60.3707 87.4523 60.4714 86.7026 60.6178 85.9474C60.6371 85.8469 60.6563 85.7463 60.6761 85.6427C60.7168 85.4313 60.7578 85.22 60.7991 85.0087C60.8607 84.692 60.9205 84.3749 60.9803 84.0577C61.6279 80.6864 62.8636 77.6043 65.1094 74.9766C65.1616 74.915 65.2139 74.8534 65.2678 74.7899C68.436 71.0925 73.0095 68.9423 77.8828 68.9561Z" fill="white"/>
</g>
<g clip-path="url(#clip3_555_718)">
<path d="M122.675 68.963C122.961 68.9634 123.247 68.9606 123.533 68.9577C125.216 68.9509 126.847 69.1789 128.471 69.6226C128.563 69.6474 128.655 69.6722 128.75 69.6977C131.659 70.5096 134.353 72.0288 136.594 74.0391C136.749 74.173 136.749 74.173 136.907 74.3096C140.678 77.5991 143.161 82.5627 143.529 87.5624C143.56 88.2512 143.557 88.9401 143.555 89.6294C143.556 89.8563 143.557 90.0831 143.558 90.31C143.56 90.9197 143.56 91.5294 143.559 92.1391C143.559 92.6512 143.559 93.1634 143.56 93.6756C143.562 94.8857 143.562 96.0958 143.56 97.3059C143.559 98.547 143.561 99.788 143.564 101.029C143.566 102.101 143.567 103.173 143.566 104.245C143.566 104.883 143.566 105.52 143.568 106.158C143.583 111.288 143.583 111.288 143.039 113.414C143.017 113.504 142.995 113.595 142.972 113.688C141.671 118.925 138.119 123.481 133.525 126.255C131.921 127.192 130.229 127.909 128.435 128.392C128.355 128.414 128.276 128.435 128.194 128.457C126.484 128.885 124.796 129.065 123.037 129.051C122.94 129.051 122.844 129.051 122.744 129.05C121.151 129.042 119.629 128.919 118.078 128.531C117.991 128.511 117.904 128.49 117.814 128.469C112.567 127.195 108.034 123.597 105.242 119.029C103.998 116.922 103.183 114.642 102.727 112.242C102.706 112.14 102.686 112.037 102.665 111.931C102.459 110.765 102.458 109.617 102.458 108.437C102.458 108.21 102.457 107.984 102.456 107.757C102.454 107.145 102.453 106.533 102.453 105.92C102.453 105.536 102.452 105.153 102.452 104.769C102.45 103.425 102.449 102.082 102.449 100.738C102.449 99.4929 102.447 98.2476 102.443 97.0022C102.44 95.9276 102.439 94.853 102.439 93.7784C102.439 93.139 102.438 92.4996 102.436 91.8602C102.417 86.7187 102.417 86.7187 102.961 84.5859C102.983 84.4968 103.004 84.4076 103.027 84.3158C104.282 79.1794 107.74 74.7005 112.198 71.9237C114.396 70.5975 116.728 69.7078 119.25 69.2344C119.36 69.2127 119.471 69.1911 119.584 69.1688C120.616 68.9858 121.63 68.9602 122.675 68.963ZM115.935 82.4912C114.383 84.1355 113.39 86.1289 113.146 88.3808C113.136 88.473 113.126 88.5651 113.115 88.6601C113.021 89.5932 113.006 90.5194 113.009 91.4565C113.009 91.6404 113.008 91.8244 113.008 92.0083C113.007 92.5008 113.007 92.9932 113.008 93.4857C113.008 94.0056 113.008 94.5254 113.007 95.0452C113.007 95.9175 113.008 96.7898 113.009 97.6621C113.01 98.665 113.009 99.6679 113.008 100.671C113.007 101.538 113.007 102.405 113.008 103.272C113.008 103.787 113.008 104.303 113.007 104.818C113.007 105.303 113.007 105.787 113.008 106.272C113.009 106.448 113.009 106.624 113.008 106.8C113.004 108.412 113.02 110.149 113.574 111.678C113.604 111.764 113.634 111.85 113.665 111.939C114.619 114.519 116.541 116.447 119.019 117.604C121.675 118.713 124.328 118.637 127.006 117.604C129.574 116.471 131.385 114.348 132.396 111.773C132.64 111.062 132.774 110.362 132.855 109.618C132.865 109.526 132.875 109.434 132.885 109.339C132.98 108.406 132.994 107.48 132.991 106.543C132.992 106.36 132.992 106.176 132.993 105.992C132.994 105.499 132.993 105.007 132.993 104.514C132.992 103.994 132.993 103.475 132.993 102.955C132.993 102.083 132.993 101.21 132.992 100.338C132.99 99.335 132.991 98.3321 132.992 97.3292C132.993 96.4621 132.993 95.595 132.993 94.7279C132.992 94.2127 132.992 93.6974 132.993 93.1822C132.994 92.6974 132.993 92.2126 132.992 91.7278C132.992 91.5518 132.992 91.3758 132.992 91.1998C132.997 89.5881 132.98 87.8512 132.426 86.3218C132.396 86.2357 132.366 86.1497 132.335 86.061C131.389 83.5019 129.501 81.5879 127.042 80.4258C123.255 78.7989 118.873 79.5843 115.935 82.4912Z" fill="white"/>
</g>
</g>
<defs>
<linearGradient id="paint0_linear_555_718" x1="-12.4346" y1="91.2143" x2="228.124" y2="92.0978" gradientUnits="userSpaceOnUse">
<stop stop-color="#AA367C"/>
<stop offset="1" stop-color="#4A2FBD"/>
</linearGradient>
<clipPath id="clip0_555_718">
<rect width="204" height="204" fill="white"/>
</clipPath>
<clipPath id="clip1_555_718">
<rect width="28" height="28" fill="white" transform="translate(146 59)"/>
</clipPath>
<clipPath id="clip2_555_718">
<rect width="60" height="60" fill="white" transform="translate(48 69)"/>
</clipPath>
<clipPath id="clip3_555_718">
<rect width="60" height="60" fill="white" transform="translate(93 69)"/>
</clipPath>
</defs>
</svg>
